<?xml version="1.0" encoding="utf-8"?>
<!-- Generator: Adobe Illustrator 22.0.1, SVG Export Plug-In . SVG Version: 6.00 Build 0)  -->
<svg version="1.1" id="Layer_1" xmlns="http://www.w3.org/2000/svg" xmlns:xlink="http://www.w3.org/1999/xlink" x="0px" y="0px"
	 viewBox="0 0 873.3 251.2" style="enable-background:new 0 0 873.3 251.2;" xml:space="preserve">
<style type="text/css">
	.st0{fill:#23292F;}
	.st1{fill:url(#SVGID_1_);}
</style>
<title>Ripple_logo_RGB</title>
<path class="st0" d="M318.3,94.9c-2.3-0.8-7.2-1.3-12-1.3c-14.6,0-30.2,11.8-30.2,26.4v69.7h-33.3V65.4h32v12.6
	c7.4-9.2,21-15.1,36.1-15.1c3.8,0,7.6,0.4,11.3,1L318.3,94.9z"/>
<path class="st0" d="M356,0c12,0,21.8,9.2,21.8,21.3S368,42.6,356,42.6s-21.8-9.2-21.8-21.3S343.9,0,356,0z M372.7,189.7h-33.3V65.4
	h33.3V189.7L372.7,189.7z"/>
<path class="st0" d="M471.1,62.8c-13.2-0.2-26.1,4.3-36.4,12.6v-10h-32.1v185.8H436V181c9.5,7.5,21.3,11.5,33.3,11.3
	c18.5,0,36.1-8.2,47.2-21c9.7-11.3,15.6-26.7,15.6-43.6C532.1,91,504.9,62.8,471.1,62.8z M467,162c-20.7,0-34.3-14.3-34.3-34.2
	s13.6-34.2,34.3-34.2c17.7,0,32,15.3,32,34.2S484.7,162,467,162L467,162z"/>
<path class="st0" d="M734.4,189.7H701V7.7h33.3L734.4,189.7L734.4,189.7z"/>
<path class="st0" d="M870.2,170c-12,14.4-31.8,22.3-51,22.3c-37.2,0-65.1-25.6-65.1-64.6c0-34.6,23.6-64.9,60.5-64.9
	c34.4,0,58.7,29,58.7,63.6c0,3.2-0.2,6.4-0.8,9.5h-86.1c1.8,17.4,15.9,29.5,33.6,29.5c14.1,0,25.4-7.9,31.3-14.4L870.2,170z
	 M839.2,111.5c-1-11-11-21.8-24.6-21.8c-13.8,0-25.1,10.5-26.7,21.8H839.2L839.2,111.5z"/>
<path class="st0" d="M620.3,62.8c-13.2-0.2-26.1,4.3-36.4,12.6v-10h-32.1v185.8h33.3V181c9.5,7.5,21.3,11.5,33.3,11.3
	c18.5,0,36.1-8.2,47.2-21c9.7-11.3,15.6-26.7,15.6-43.6C681.3,91,654.1,62.8,620.3,62.8z M616.2,162c-20.7,0-34.3-14.3-34.3-34.2
	s13.6-34.2,34.3-34.2c17.7,0,32,15.3,32,34.2S633.9,162,616.2,162z"/>
<linearGradient id="SVGID_1_" gradientUnits="userSpaceOnUse" x1="83.6756" y1="181.5188" x2="231.1769" y2="34.0176" gradientTransform="matrix(1 0 0 -1 -28.3468 228.7019)">
	<stop  offset="0" style="stop-color:#1DB4FF"/>
	<stop  offset="1" style="stop-color:#0F72E5"/>
</linearGradient>
<path class="st1" d="M174,144.4c-7.5-4.3-16-5.6-24.4-5.9c-7-0.2-17.5-4.8-17.5-17.6c0-9.5,7.7-17.2,17.6-17.6
	c8.4-0.3,16.9-1.6,24.4-5.9c21.3-12.3,28.5-39.5,16.3-60.7C178,15.5,150.8,8.2,129.5,20.5c-13.8,7.9-22.2,22.6-22.2,38.5
	c0,8.6,3.1,16.5,7,23.9c3.3,6.2,4.9,17.7-6.3,24.2c-8.4,4.8-18.9,1.8-24.1-6.6c-4.4-7.1-9.7-13.7-17.2-18
	C45.4,70.2,18.2,77.5,6,98.7s-5,48.4,16.3,60.7c13.8,7.9,30.7,7.9,44.4,0c7.5-4.3,12.8-10.9,17.2-18c3.6-5.8,12.7-13.2,24.1-6.6
	c8.4,4.8,11,15.4,6.3,24.2c-3.9,7.3-7,15.3-7,23.9c0,24.5,19.9,44.4,44.4,44.4s44.4-19.9,44.4-44.4C196.2,167,187.7,152.3,174,144.4
	z"/>
</svg>
