<?xml version="1.0" encoding="utf-8"?>
<!-- Generator: Adobe Illustrator 23.0.0, SVG Export Plug-In . SVG Version: 6.00 Build 0)  -->
<svg version="1.1" id="Layer_1" xmlns="http://www.w3.org/2000/svg" xmlns:xlink="http://www.w3.org/1999/xlink" x="0px" y="0px"
	 viewBox="0 0 174 26.5" style="enable-background:new 0 0 174 26.5;" xml:space="preserve">
<style type="text/css">
	.st0{fill-rule:evenodd;clip-rule:evenodd;fill:#293F41;}
	.st1{fill-rule:evenodd;clip-rule:evenodd;fill:#82B6A1;}
	.st2{fill:#293F41;}
</style>
<g>
	<path class="st0" d="M42.8,8.4c-1.9,0-3.5,0.7-4.8,1.7V8.5h-4.4v17.1h4.6V14.7c0.6-0.9,2.2-2.1,4.1-2.1c0.7,0,1.3,0.1,1.8,0.3V8.5
		C43.7,8.4,43.3,8.4,42.8,8.4"/>
	<path class="st0" d="M3,20.4c1.2,1.1,2.9,1.7,4.7,1.7c1.2,0,2.2-0.6,2.2-1.4c0-2.6-8.2-1.7-8.2-7.2c0-3.3,3.2-5.3,6.5-5.3
		c2.2,0,4.6,0.8,5.8,1.7l-2.1,3.3c-0.9-0.6-2-1.2-3.3-1.2c-1.3,0-2.3,0.5-2.3,1.4c0,2.2,8.2,1.3,8.2,7.3c0,3.3-3.2,5.3-6.8,5.3
		c-2.4,0-4.8-0.8-6.8-2.3L3,20.4z"/>
	<path class="st0" d="M31.7,16.9c0-4.8-3.3-8.7-8-8.7c-5.1,0-8.3,4.2-8.3,8.9c0,5.4,3.8,8.9,8.9,8.9c2.6,0,5.3-1.1,7-3.1l-2.6-2.6
		c-0.8,0.9-2.4,2-4.3,2c-2.4,0-4.4-1.7-4.6-4.1h11.8C31.6,17.8,31.7,17.4,31.7,16.9 M20,14.9c0.2-1.6,1.8-3,3.6-3
		c1.9,0,3.2,1.5,3.4,3H20z"/>
	<polygon class="st0" points="55,19 59.7,8.5 64.4,8.5 56.6,25.6 53.4,25.6 45.6,8.5 50.4,8.5 	"/>
	<path class="st0" d="M68.3,0.5c1.6,0,3,1.3,3,2.9s-1.3,2.9-3,2.9s-3-1.3-3-2.9C65.3,1.8,66.6,0.5,68.3,0.5"/>
	<rect x="66" y="8.5" class="st0" width="4.6" height="17.1"/>
	<path class="st0" d="M89.4,22.1c-2,2.7-4.5,3.8-7.7,3.8c-5.3,0-9.1-4-9.1-8.9c0-5,4-8.9,9.2-8.9c2.9,0,5.6,1.4,7.2,3.4l-3.2,2.9
		c-0.9-1.2-2.3-2-3.9-2c-2.6,0-4.6,2.1-4.6,4.7c0,2.7,1.9,4.7,4.7,4.7c1.9,0,3.3-1.1,4.1-2.3L89.4,22.1z"/>
	<path class="st0" d="M106,22.9c-1.6,2-4.4,3.1-7,3.1c-5.1,0-8.9-3.5-8.9-8.9c0-4.8,3.2-8.9,8.3-8.9c4.7,0,8,4,8,8.7
		c0,0.5,0,0.9-0.1,1.3H94.5c0.2,2.4,2.2,4.1,4.6,4.1c1.9,0,3.5-1.1,4.3-2L106,22.9z M101.7,14.9c-0.1-1.5-1.5-3-3.4-3
		c-1.9,0-3.4,1.4-3.6,3H101.7z"/>
	<path class="st0" d="M108.2,25.6V8.5h4.4v1.4c1.3-1.1,2.9-1.7,4.8-1.7c2.4,0,4.5,1.1,5.9,2.8c1.1,1.3,1.8,3.1,1.8,6v8.7h-4.6v-9.1
		c0-1.7-0.4-2.6-1-3.2c-0.6-0.6-1.5-1-2.6-1c-1.9,0-3.5,1.2-4.1,2.1v11.1L108.2,25.6L108.2,25.6z"/>
	<path class="st1" d="M136.8,8.2c-5.4,0-10,4.4-10,9.9c0,2.9,1.2,5.5,3.1,7.4c0.7,0.7,1.8,0.7,2.6,0.1c1.1-0.9,2.6-1.4,4.3-1.4
		c1.7,0,3.1,0.5,4.3,1.4c0.8,0.6,1.9,0.5,2.6-0.2c1.9-1.8,3.1-4.4,3.1-7.3C146.7,12.7,142.3,8.2,136.8,8.2 M136.7,23.2
		c-2.9,0-5-2.2-5-5c0-2.8,2-5,5-5c3,0,5,2.3,5,5S139.7,23.2,136.7,23.2"/>
	<polygon class="st0" points="155.7,25.6 152.3,25.6 145.5,8.5 150.1,8.5 153.8,18.3 157.5,8.5 161.3,8.5 164.9,18.3 168.6,8.5 
		173.2,8.5 166.4,25.6 163,25.6 159.4,15.9 	"/>
	<polygon class="st2" points="170.7,23.5 170.7,23.8 170.1,23.8 170.1,25.6 169.7,25.6 169.7,23.8 169.1,23.8 169.1,23.5 	"/>
	<polygon class="st2" points="172.1,24.8 172.9,23.5 173.2,23.5 173.2,25.6 172.8,25.6 172.8,24.4 172.2,25.3 171.9,25.3 
		171.4,24.4 171.4,25.6 171,25.6 171,23.5 171.3,23.5 	"/>
</g>
</svg>
