<svg xmlns="http://www.w3.org/2000/svg" viewBox="0 0 412.28 117.95"><defs><style>.cls-1{fill:#6a8de5;}.cls-2{fill:#fff;}</style></defs><title>Artboard 8</title><g id="Layer_2" data-name="Layer 2"><path class="cls-1" d="M125.5,117.1H32.8a32.09,32.09,0,0,1-32-32V32.7a32.09,32.09,0,0,1,32-32h92.7a32.09,32.09,0,0,1,32,32V85.1A32.09,32.09,0,0,1,125.5,117.1Z"/><path class="cls-2" d="M37.2,89a5,5,0,1,1-7.6-6.6l4.5-5.2L77.4,27.3l.7-.8a5,5,0,0,1,7.6,6.6l-.7.8L41.7,83.8Z"/><path class="cls-2" d="M67.9,89a5,5,0,1,1-7.6-6.6l4.5-5.1L93.3,44l.7-.8a5,5,0,0,1,7.6,6.6l-.7.8L72.4,83.9Z"/><path class="cls-2" d="M97.8,89a5,5,0,1,1-7.6-6.6l4.5-5.1L108,61.9l.7-.8a5,5,0,0,1,7.6,6.6l-.7.8L102.3,83.9Z"/><path class="cls-2" d="M123.2,89a5,5,0,1,1-7.6-6.6l4.5-5.1.3-.2.7-.8a5,5,0,0,1,7.6,6.6l-.7.8-.3.2Z"/><path class="cls-1" d="M235.8,55.37a19.76,19.76,0,0,0-5.7-5,16.45,16.45,0,0,0-8.3-2,14.64,14.64,0,0,0-8,2,6.3,6.3,0,0,0-3.4,5.8,6.63,6.63,0,0,0,1.9,5,14.9,14.9,0,0,0,4.6,3.1,27,27,0,0,0,5.7,1.8c2,.4,3.8.8,5.2,1.1a60.83,60.83,0,0,1,7.9,2.5,19.8,19.8,0,0,1,6.3,3.9,16.35,16.35,0,0,1,4.2,5.8,20.52,20.52,0,0,1,1.5,8.3,19.17,19.17,0,0,1-2.5,10.1,19.89,19.89,0,0,1-6.4,6.8,26.35,26.35,0,0,1-8.9,3.8,43.8,43.8,0,0,1-24.9-1.6c-4.3-1.8-8.1-5.1-11.4-9.8l9.9-8.2a40,40,0,0,0,7.1,5.8,17,17,0,0,0,9.5,2.5,29.21,29.21,0,0,0,5-.5,15,15,0,0,0,4.5-1.6,9.68,9.68,0,0,0,3.2-2.8,6.45,6.45,0,0,0,1.2-3.9,6.89,6.89,0,0,0-1.8-4.9,11.92,11.92,0,0,0-4.3-3,47.18,47.18,0,0,0-5.3-1.8c-1.9-.5-3.5-.8-5-1.1a81.59,81.59,0,0,1-7.9-2.4,23.28,23.28,0,0,1-6.6-3.6,16.68,16.68,0,0,1-4.6-5.6,19.34,19.34,0,0,1-1.7-8.4,19.36,19.36,0,0,1,2.3-9.5,21.15,21.15,0,0,1,5.9-6.7,27.15,27.15,0,0,1,8.4-4,34.61,34.61,0,0,1,22.8,1.4,21.73,21.73,0,0,1,10.1,8.9Z"/><path class="cls-1" d="M257.3,12.77a9.93,9.93,0,0,1,2.8-6.9,9.19,9.19,0,0,1,13.4,0,9.35,9.35,0,0,1,2.8,6.9,9.93,9.93,0,0,1-2.8,6.9,9.19,9.19,0,0,1-13.4,0A9,9,0,0,1,257.3,12.77ZM260.2,38h13l-.3,70h-13Z"/><path class="cls-1" d="M326,55.77a19.76,19.76,0,0,0-5.7-5,16.45,16.45,0,0,0-8.3-2,14.64,14.64,0,0,0-8,2,6.3,6.3,0,0,0-3.4,5.8,6.63,6.63,0,0,0,1.9,5,14.9,14.9,0,0,0,4.6,3.1,27,27,0,0,0,5.7,1.8c2,.4,3.8.8,5.2,1.1a60.83,60.83,0,0,1,7.9,2.5,19.8,19.8,0,0,1,6.3,3.9,16.35,16.35,0,0,1,4.2,5.8,20.52,20.52,0,0,1,1.5,8.3,19.17,19.17,0,0,1-2.5,10.1A19.89,19.89,0,0,1,329,105a26.35,26.35,0,0,1-8.9,3.8,43.8,43.8,0,0,1-24.9-1.6c-4.3-1.8-8.1-5.1-11.4-9.8l9.9-8.2a40,40,0,0,0,7.1,5.8,17,17,0,0,0,9.5,2.5,29.21,29.21,0,0,0,5-.5,15,15,0,0,0,4.5-1.6,9.68,9.68,0,0,0,3.2-2.8,6.45,6.45,0,0,0,1.2-3.9,6.89,6.89,0,0,0-1.8-4.9,11.92,11.92,0,0,0-4.3-3,47.18,47.18,0,0,0-5.3-1.8c-1.8-.5-3.5-.8-5-1.1a81.59,81.59,0,0,1-7.9-2.4,23.28,23.28,0,0,1-6.6-3.6,16.68,16.68,0,0,1-4.6-5.6,19.34,19.34,0,0,1-1.7-8.4,19.36,19.36,0,0,1,2.3-9.5,21.15,21.15,0,0,1,5.9-6.7,27.15,27.15,0,0,1,8.4-4,34.61,34.61,0,0,1,22.8,1.4A21.73,21.73,0,0,1,336.5,48Z"/><path class="cls-1" d="M409.7,108.57h-13V97.77h-.3a19.79,19.79,0,0,1-8.6,9.1,27.92,27.92,0,0,1-14,3.4,27.08,27.08,0,0,1-9.5-1.6,22.09,22.09,0,0,1-7.9-4.8,23.87,23.87,0,0,1-5.4-8.4,33.5,33.5,0,0,1-2-12l.2-45.1h13l-.2,41.4a23.92,23.92,0,0,0,1.3,8.4,16.11,16.11,0,0,0,3.4,5.6,12.41,12.41,0,0,0,5,3.1,19.1,19.1,0,0,0,5.8,1,20.39,20.39,0,0,0,7.5-1.3,16.72,16.72,0,0,0,6.1-4.2,19.09,19.09,0,0,0,4.1-7.3,32.81,32.81,0,0,0,1.5-10.5l.1-36h13Z"/></g></svg>